<svg width="142" height="102" viewBox="0 0 142 102" fill="none" xmlns="http://www.w3.org/2000/svg">
<path d="M277.48 66.46C264.594 42.0024 246.375 19.6979 226.974 4.62961C221.454 0.342815 215.631 -3.46775 210.443 -4.23637C195.452 -6.45609 191.236 13.2561 186.176 25.5192C180.07 40.3173 174.355 55.5508 166.926 68.9528C162.756 76.477 157.02 83.7454 147.514 80.7761C137.888 77.7687 128.337 65.5978 119.478 55.2167C109.156 43.1199 97.896 31.9959 86.323 24.9482C74.75 17.9005 62.8105 15.3128 55.0392 20.339C48.9537 24.2753 45.8439 32.423 43.6141 41.006C37.7561 63.5586 36.9913 90.6067 41.3898 119.671" stroke="url(#paint0_linear_7057_1825)" stroke-width="0.0761626" stroke-miterlimit="10"/>
<path d="M277.286 65.2566C265.897 43.6407 250.059 24.3698 232.293 9.5222C230.644 8.14319 228.987 6.80092 227.32 5.5174C221.844 1.30211 216.081 -2.45469 210.939 -3.26395C196.063 -5.61253 191.617 13.2495 186.41 25.2051C181.793 35.8048 177.451 46.7828 172.426 57.1599C170.687 60.7698 168.876 64.3015 166.955 67.718C162.789 75.1282 157.118 82.3039 147.8 79.5759C138.365 76.8131 129.005 65.1851 120.311 55.2837C110.18 43.747 99.137 33.1437 87.7745 26.4626C83.8185 24.1365 79.8174 22.3311 75.9557 21.1744C68.7288 19.0077 61.9881 19.1094 56.9496 22.3188C50.8975 26.1739 47.7095 34.0736 45.3615 42.3535C40.6032 59.1077 38.7319 78.2833 39.8421 99.0602C40.1729 105.26 40.7691 111.601 41.6357 118.063" stroke="url(#paint1_linear_7057_1825)" stroke-width="0.0761626" stroke-miterlimit="10"/>
<path d="M277.091 64.0557C266.082 43.1603 250.625 25.1564 232.595 10.3368C230.958 8.99209 229.317 7.66914 227.666 6.40851C222.233 2.26592 216.532 -1.4383 211.434 -2.28893C196.671 -4.7671 191.999 13.245 186.644 24.8943C181.939 35.1273 177.563 45.8746 172.465 56.1046C170.718 59.6488 168.903 63.1224 166.985 66.4865C162.824 73.7836 157.216 80.866 148.087 78.379C138.842 75.8599 129.673 64.7748 121.145 55.3538C111.206 44.377 100.378 34.2948 89.2273 27.981C85.3447 25.7832 81.4159 24.0855 77.6205 23.0121C70.5183 20.9986 63.8724 21.1604 58.862 24.3025C52.8438 28.0773 49.5776 35.7279 47.1103 43.7039C42.1047 59.8422 39.854 78.158 40.5113 98.1409C40.7072 104.104 41.1615 110.213 41.8831 116.458" stroke="url(#paint2_linear_7057_1825)" stroke-width="0.0761626" stroke-miterlimit="10"/>
<path d="M276.897 62.8527C266.267 42.678 251.194 25.9398 232.897 11.1493C231.273 9.83679 229.649 8.53412 228.014 7.29735C222.624 3.22627 216.984 -0.42299 211.932 -1.31545C197.283 -3.92249 192.386 13.2392 186.879 24.5812C182.088 34.4478 177.65 44.934 172.506 55.0477C170.742 58.517 168.932 61.9417 167.016 65.2537C162.86 72.4367 157.316 79.4268 148.376 77.1806C139.322 74.9051 130.344 64.3639 121.98 55.4225C112.232 45.0058 101.622 35.4443 90.6818 29.4968C86.872 27.4276 83.0161 25.8374 79.2865 24.8462C72.3085 22.9862 65.7584 23.2077 60.7755 26.2838C54.7911 29.9784 51.4469 37.3799 48.8602 45.052C43.6073 60.5755 40.9772 78.0304 41.1822 97.2203C41.2432 102.946 41.556 108.824 42.1331 114.852" stroke="url(#paint3_linear_7057_1825)" stroke-width="0.0761626" stroke-miterlimit="10"/>
<path d="M276.702 61.6514C266.451 42.1972 251.764 26.7218 233.197 11.9637C231.587 10.6844 229.978 9.40128 228.36 8.18836C223.012 4.18999 217.433 0.593305 212.427 -0.340758C197.892 -3.07666 192.772 13.2362 187.112 24.2703C182.238 33.772 177.752 44.0163 172.544 53.9922C170.769 57.3935 168.959 60.7622 167.045 64.0221C162.894 71.092 157.414 77.9896 148.662 75.9836C139.799 73.9528 131.011 63.9544 122.812 55.4927C113.256 45.6362 102.861 36.5944 92.1327 31.0144C88.3958 29.0725 84.6133 27.5907 80.9488 26.6821C74.0961 24.9763 67.6414 25.2577 62.6848 28.2659C56.7332 31.8795 53.3114 39.0328 50.606 46.4009C45.1059 61.3084 42.0962 77.9036 41.8479 96.2997C41.7734 101.789 41.9448 107.434 42.3769 113.245" stroke="url(#paint4_linear_7057_1825)" stroke-width="0.0761626" stroke-miterlimit="10"/>
<path d="M276.507 60.449C266.637 41.7153 252.337 27.5008 233.499 12.7768C231.902 11.5295 230.309 10.268 228.707 9.07776C223.403 5.1509 217.884 1.60822 212.924 0.63352C198.503 -2.23124 193.162 13.2329 187.347 23.959C182.392 33.0981 177.858 43.0987 172.585 52.937C170.799 56.2703 168.988 59.5832 167.076 62.7908C162.93 69.7467 157.514 76.5519 148.95 74.7869C140.278 72.9998 131.682 63.545 123.647 55.5633C114.282 46.2656 104.104 37.7457 93.5867 32.5333C89.9233 30.7196 86.213 29.3456 82.6143 28.5192C75.8863 26.9667 69.5263 27.3082 64.5984 30.25C58.6807 33.7834 55.1813 40.6885 52.3566 47.7527C46.6097 62.0452 43.22 77.7797 42.5194 95.3827C42.31 100.635 42.3394 106.049 42.6265 111.642" stroke="url(#paint5_linear_7057_1825)" stroke-width="0.0761626" stroke-miterlimit="10"/>
<path d="M276.312 59.2459C266.822 41.2327 252.912 28.2748 233.8 13.5883C232.217 12.3726 230.639 11.132 229.053 9.96579C223.793 6.1114 218.335 2.62152 213.42 1.60522C199.112 -1.38818 193.554 13.2274 187.58 23.6441C182.547 32.4219 177.962 42.1777 172.624 51.8776C170.827 55.1428 169.015 58.4 167.104 61.5543C162.963 68.3971 157.612 75.1088 149.235 73.585C140.754 72.0415 132.349 63.1306 124.479 55.6286C115.305 46.891 105.344 38.8918 95.0371 34.0459C91.4471 32.3606 87.8097 31.094 84.2767 30.3511C77.6729 28.9521 71.4088 29.3532 66.5078 32.2281C60.624 35.6813 57.0458 42.3375 54.1024 49.0975C48.1083 62.7741 44.3391 77.6489 43.1857 94.4579C42.8408 99.4739 42.7288 104.656 42.8714 110.031" stroke="url(#paint6_linear_7057_1825)" stroke-width="0.0761626" stroke-miterlimit="10"/>
<path d="M276.117 58.0437C267.006 40.7513 253.488 29.0479 234.1 14.4019C232.532 13.217 230.969 11.9982 229.399 10.8557C224.181 7.07306 218.784 3.63695 213.915 2.58001C199.722 -0.543208 193.948 13.2273 187.814 23.333C182.705 31.7511 178.069 41.2611 172.664 50.823C170.856 54.0211 169.042 57.2207 167.135 60.3235C162.998 67.0523 157.711 73.6716 149.523 72.3889C141.233 71.09 133.018 62.721 125.313 55.6994C116.332 47.5217 106.587 40.0434 96.4913 35.5648C92.9742 34.0068 89.4096 32.8489 85.9424 32.1883C79.4633 30.9425 73.2951 31.4045 68.4209 34.2124C62.5705 37.5844 58.9148 43.9925 55.8514 50.4489C49.6106 63.5104 45.4614 77.5246 43.8551 93.5408C43.3753 98.3199 43.1213 103.27 43.1189 108.428" stroke="url(#paint7_linear_7057_1825)" stroke-width="0.0761626" stroke-miterlimit="10"/>
<path d="M275.923 56.8409C267.191 40.2689 254.066 29.816 234.402 15.2145C232.848 14.0602 231.3 12.8643 229.746 11.7449C224.572 8.03474 219.236 4.65238 214.412 3.55384C200.333 0.301757 194.346 13.2264 188.049 23.0203C182.867 31.0807 178.175 40.343 172.704 49.7655C170.886 52.8954 169.071 56.0394 167.165 59.0901C163.033 65.7058 157.81 72.2316 149.81 71.1911C141.711 70.1358 133.688 62.3106 126.147 55.7687C117.357 48.1511 107.829 41.1937 97.944 37.0816C94.5003 35.6518 91.0086 34.6014 87.6065 34.0233C81.2528 32.9317 75.1793 33.4526 70.3326 36.1946C64.516 39.4864 60.7822 45.6453 57.6 51.7988C51.112 64.2444 46.5833 77.3988 44.5241 92.621C43.9089 97.1635 43.513 101.881 43.3666 106.823" stroke="url(#paint8_linear_7057_1825)" stroke-width="0.0761626" stroke-miterlimit="10"/>
<path d="M275.727 55.6381C267.376 39.7867 254.644 30.5804 234.703 16.0273C233.163 14.9035 231.63 13.7298 230.093 12.634C224.961 8.99556 219.686 5.66699 214.908 4.52662C200.943 1.1459 194.745 13.227 188.283 22.7075C183.031 30.4126 178.282 39.4266 172.743 48.7091C170.916 51.7728 169.098 54.8592 167.195 57.8575C163.068 64.3592 157.909 70.7926 150.098 69.9931C142.189 69.1815 134.356 61.9002 126.981 55.838C118.382 48.7805 109.07 42.3438 99.3967 38.5992C96.0265 37.2977 92.607 36.3549 89.2707 35.8592C83.0411 34.921 77.0635 35.5028 72.2444 38.1764C66.4612 41.387 62.6491 47.298 59.3482 53.1474C52.6135 64.978 47.7048 77.2717 45.1933 91.7009C44.4431 96.0065 43.9053 100.492 43.6144 105.216" stroke="url(#paint9_linear_7057_1825)" stroke-width="0.0761626" stroke-miterlimit="10"/>
<path d="M275.533 54.4366C267.561 39.3057 255.226 31.3429 235.004 16.8406C233.478 15.7461 231.961 14.5956 230.438 13.5229C225.35 9.95693 220.136 6.68116 215.403 5.50039C201.552 1.9908 195.147 13.2297 188.515 22.3947C183.196 29.747 178.389 38.5099 172.781 47.6517C170.944 50.6481 169.124 53.678 167.223 56.624C163.101 63.0126 158.006 69.3525 150.383 68.7943C142.665 68.2263 135.024 61.4889 127.813 55.9063C119.406 49.4087 110.31 43.4929 100.847 40.1149C97.5498 38.9407 94.2026 38.1057 90.9326 37.6931C84.8278 36.9082 78.9455 37.5499 74.1538 40.1576C68.4039 43.2882 64.5143 48.9498 61.0941 54.4953C54.1121 65.7099 48.8234 77.143 45.859 90.7793C44.974 94.8481 44.2941 99.1022 43.8582 103.609" stroke="url(#paint10_linear_7057_1825)" stroke-width="0.0761626" stroke-miterlimit="10"/>
<path d="M275.339 53.2338C267.746 38.8235 255.808 32.0992 235.305 17.6533C233.794 16.5882 232.291 15.4619 230.785 14.4119C225.74 10.9177 220.587 7.69572 215.9 6.47311C202.163 2.83467 195.553 13.2346 188.75 22.0818C183.366 29.0835 178.497 37.5931 172.822 46.595C170.975 49.5251 169.153 52.4975 167.254 55.3912C163.137 61.6657 158.106 67.9143 150.672 67.5958C143.145 67.2725 135.694 61.0767 128.648 55.976C120.432 50.0376 111.554 44.6434 102.302 41.6317C99.0782 40.5858 95.8039 39.8583 92.5995 39.5292C86.6195 38.8976 80.8325 39.5991 76.0677 42.1399C70.3517 45.1902 66.3834 50.603 62.845 55.8454C55.6163 66.4449 49.9475 77.0174 46.5304 89.8596C45.5098 93.6919 44.6886 97.714 44.1083 102.003" stroke="url(#paint11_linear_7057_1825)" stroke-width="0.0761626" stroke-miterlimit="10"/>
<path d="M275.144 52.0324C267.931 38.3427 256.39 32.8517 235.607 18.4674C234.11 17.4314 232.622 16.3251 231.132 15.3026C226.131 11.8701 221.038 8.71259 216.397 7.44839C202.773 3.68012 195.962 13.2436 188.985 21.7713C183.54 28.4259 178.608 36.6806 172.863 45.5399C171.006 48.4036 169.182 51.3174 167.284 54.1592C163.172 60.3207 158.205 66.4757 150.959 66.3985C143.622 66.3188 136.363 60.6669 129.482 56.0456C121.458 50.6673 112.796 45.7938 103.755 43.1496C100.605 42.2321 97.4027 41.6122 94.2641 41.3654C88.4087 40.8882 82.7171 41.6496 77.9803 44.123C72.2977 47.0922 68.2518 52.2568 64.5941 57.1953C57.1181 67.1789 51.0699 76.8916 47.2004 88.9408C46.045 92.5362 45.0817 96.3267 44.3569 100.399" stroke="url(#paint12_linear_7057_1825)" stroke-width="0.0761626" stroke-miterlimit="10"/>
<path d="M274.949 50.8301C268.116 37.861 256.973 33.5985 235.908 19.2809C234.425 18.273 232.952 17.192 231.478 16.1924C226.52 12.8314 221.488 9.72789 216.892 8.42209C203.382 4.52519 196.373 13.2551 189.218 21.4584C183.715 27.7683 178.715 35.7658 172.902 44.4832C171.036 47.2803 169.209 50.137 167.314 52.9264C163.206 58.9738 158.303 65.0365 151.245 65.2002C144.099 65.3643 137.031 60.2561 130.315 56.1146C122.482 51.2961 114.037 46.9435 105.207 44.666C102.129 43.876 99.0005 43.3643 95.9265 43.2003C90.1959 42.8763 84.5995 43.6976 79.8897 46.1041C74.2409 48.993 70.1169 53.9085 66.3399 58.5431C58.6172 67.9117 52.1889 76.7638 47.8661 88.0192C46.5752 91.378 45.4705 94.9366 44.6007 98.7913" stroke="url(#paint13_linear_7057_1825)" stroke-width="0.0761626" stroke-miterlimit="10"/>
<path d="M274.754 49.6269C268.3 37.3782 257.557 34.3392 236.209 20.0932C234.74 19.1134 233.282 18.057 231.824 17.0812C226.909 13.7917 221.938 10.742 217.388 9.39557C203.992 5.3698 196.789 13.2688 189.452 21.1463C183.894 27.1149 178.826 34.8522 172.941 43.4265C171.066 46.1573 169.237 48.9565 167.343 51.6935C163.24 57.6279 158.402 63.597 151.532 64.002C144.577 64.4107 137.7 59.8455 131.148 56.1836C123.507 51.9252 115.278 48.0936 106.659 46.1833C103.654 45.5216 100.599 45.1176 97.5904 45.0359C91.9846 44.8652 86.4836 45.7463 81.8012 48.0869C76.1863 50.8956 71.9836 55.5621 68.0878 59.8939C60.1178 68.6465 53.3101 76.6388 48.5349 87.1012C47.1091 90.2231 45.8625 93.5501 44.8481 97.187" stroke="url(#paint14_linear_7057_1825)" stroke-width="0.0761626" stroke-miterlimit="10"/>
<path d="M274.56 48.4249C268.486 36.8968 258.143 35.0753 236.51 20.9058C235.057 19.954 233.614 18.9221 232.172 17.9701C227.3 14.7522 222.389 11.7564 217.885 10.3684C204.603 6.21378 197.208 13.286 189.686 20.8325C184.075 26.4624 178.937 33.9382 172.981 42.3692C171.097 45.0346 169.264 47.7754 167.373 50.4601C163.275 56.2804 158.501 62.1572 151.819 62.8032C145.055 63.4555 138.368 59.4332 131.982 56.2519C124.533 52.5534 116.52 49.2427 108.112 47.6988C105.181 47.1654 102.198 46.8689 99.2552 46.8706C93.7736 46.8534 88.3684 47.7954 83.7141 50.0686C78.1326 52.796 73.8522 57.2144 69.8371 61.2423C61.6204 69.3799 54.4327 76.5116 49.2047 86.1799C47.6429 89.0643 46.2548 92.1595 45.096 95.5797" stroke="url(#paint15_linear_7057_1825)" stroke-width="0.0761626" stroke-miterlimit="10"/>
<path d="M274.365 47.2227C268.671 36.4154 258.727 35.8051 236.811 21.7193C235.372 20.7944 233.943 19.7883 232.518 18.8603C227.689 15.715 222.841 12.7838 218.38 11.3432C205.219 7.09346 197.631 13.3097 189.92 20.5217C184.259 25.8174 179.048 33.0278 173.02 41.3136C171.128 43.9133 169.292 46.596 167.403 49.2283C163.31 54.9355 158.6 60.7188 152.106 61.6061C145.532 62.5023 139.037 59.0235 132.816 56.3217C125.558 53.1834 117.762 50.3933 109.565 49.2169C106.707 48.8108 103.797 48.623 100.92 48.707C95.5635 48.844 90.2531 49.8449 85.6257 52.0512C80.0775 54.6987 75.7191 58.8679 71.5852 62.5917C63.1212 70.1133 55.554 76.3853 49.8731 85.2608C48.1764 87.9084 46.6464 90.7718 45.3431 93.9755" stroke="url(#paint16_linear_7057_1825)" stroke-width="0.0761626" stroke-miterlimit="10"/>
<path d="M274.171 46.0205C268.856 35.9336 259.313 36.5291 237.113 22.5326C235.689 21.6346 234.274 20.6552 232.865 19.7498C228.079 16.676 223.293 13.7987 218.878 12.3174C205.831 7.93782 198.058 13.3364 190.156 20.2101C184.449 25.1749 179.163 32.1176 173.062 40.2583C171.163 42.7934 169.322 45.4169 167.435 47.9971C163.347 53.5904 158.701 59.2813 152.396 60.4105C146.013 61.5513 139.709 58.6152 133.652 56.3934C126.585 53.8151 119.006 51.5457 111.02 50.7359C108.235 50.4581 105.397 50.378 102.586 50.5443C97.3543 50.8345 92.1398 51.8963 87.5393 54.0356C82.0244 56.6019 77.5889 60.524 73.3358 63.9439C64.6251 70.8505 56.6772 76.262 50.5441 84.3433C48.712 86.7543 47.0411 89.3856 45.5927 92.3717" stroke="url(#paint17_linear_7057_1825)" stroke-width="0.0761626" stroke-miterlimit="10"/>
<path d="M273.976 44.8178C269.04 35.4505 259.898 37.2466 237.413 23.3457C236.004 22.4745 234.604 21.5208 233.211 20.6395C228.468 17.6385 223.742 14.8139 219.373 13.291C206.439 8.7828 198.486 13.3688 190.388 19.8971C184.637 24.5348 179.273 31.2071 173.1 39.2006C171.192 41.671 169.347 44.2345 167.463 46.7633C163.38 52.2434 158.798 57.8417 152.681 59.2113C146.489 60.5958 140.376 58.2035 134.483 56.4613C127.608 54.4419 120.245 52.6935 112.47 52.2512C109.758 52.1017 106.993 52.1291 104.248 52.3779C99.1401 52.8216 94.0209 53.9432 89.4479 56.0154C83.9669 58.5015 79.4533 62.1744 75.0808 65.2904C66.1228 71.5811 57.795 76.1319 51.2101 83.4211C49.243 85.5953 47.4302 87.995 45.8368 90.7635" stroke="url(#paint18_linear_7057_1825)" stroke-width="0.0761626" stroke-miterlimit="10"/>
<path d="M273.781 43.6153C269.225 34.9685 260.482 37.9565 237.714 24.1577C236.319 23.3122 234.934 22.3865 233.557 21.5278C228.857 18.5983 224.193 15.8275 219.869 14.2639C207.049 9.62593 198.919 13.4052 190.623 19.5845C184.83 23.8988 179.388 30.2985 173.14 38.1444C171.225 40.5501 169.376 43.0544 167.494 45.5299C163.414 50.896 158.897 56.402 152.968 58.0125C146.967 59.6407 141.044 57.7913 135.317 56.5298C128.633 55.0705 121.487 53.8427 113.923 53.7678C111.285 53.7456 108.593 53.8816 105.913 54.2137C100.93 54.8106 95.9063 55.9922 91.3614 57.9982C85.9143 60.404 81.3219 63.8281 76.8307 66.64C67.6261 72.3156 58.9182 76.0058 51.8799 82.5012C49.778 84.4385 47.8231 86.6065 46.0847 89.1575" stroke="url(#paint19_linear_7057_1825)" stroke-width="0.0761626" stroke-miterlimit="10"/>
<path d="M273.587 42.4135C269.41 34.4874 261.067 38.6599 238.016 24.9714C236.635 24.1517 235.265 23.2529 233.904 22.4181C229.248 19.5612 224.644 16.8432 220.366 15.2379C207.659 10.4703 199.357 13.449 190.857 19.2718C185.025 23.2664 179.503 29.39 173.179 37.0872C171.256 39.4283 169.404 41.8732 167.523 44.2966C163.449 49.5496 158.995 54.9623 153.256 56.8136C147.445 58.6864 141.713 57.3799 136.151 56.5981C129.658 55.6989 122.728 54.992 115.376 55.2834C112.81 55.3895 110.191 55.633 107.577 56.0476C102.719 56.7987 97.7907 58.0402 93.2722 59.9783C87.8584 62.3029 83.1885 65.4788 78.5785 67.9878C69.1266 73.0475 60.0392 75.878 52.5481 81.5793C50.3107 83.28 48.2144 85.2162 46.3316 87.5494" stroke="url(#paint20_linear_7057_1825)" stroke-width="0.0761626" stroke-miterlimit="10"/>
<path d="M273.391 41.2113C269.594 34.0057 261.65 39.3563 238.316 25.785C236.95 24.9898 235.595 24.1189 234.25 23.308C229.636 20.5238 225.093 17.8483 220.861 16.2126C208.263 11.2843 199.797 13.5004 191.09 18.961C185.222 22.6406 179.617 28.4839 173.219 36.0325C171.289 38.3099 169.431 40.6948 167.553 43.0658C163.484 48.2048 159.094 53.5249 153.543 55.6175C147.923 57.7339 142.382 56.9712 136.985 56.6688C130.684 56.3296 123.97 56.1436 116.829 56.8026C114.337 57.0369 111.79 57.3881 109.241 57.885C104.508 58.7896 99.6755 60.0907 95.1843 61.9629C89.8039 64.2075 85.0559 67.1343 80.3265 69.3394C70.6279 73.7841 61.1605 75.7538 53.2171 80.6622C50.8448 82.126 48.6061 83.8296 46.5792 85.9471" stroke="url(#paint21_linear_7057_1825)" stroke-width="0.0761626" stroke-miterlimit="10"/>
<path d="M273.197 40.0094C269.78 33.5243 262.234 40.045 238.619 26.5986C237.267 25.8292 235.927 24.9862 234.598 24.1981C230.027 21.4867 225.544 18.864 221.358 17.1865C208.874 12.1283 200.243 13.5576 191.326 18.649C185.423 22.0185 179.735 27.5787 173.26 34.976C171.322 37.1897 169.46 39.5144 167.584 41.8333C163.519 46.8592 159.194 52.0861 153.83 54.4196C148.401 56.7797 143.052 56.5609 137.819 56.7382C131.71 56.959 125.213 57.2937 118.282 58.3193C115.862 58.6812 113.389 59.1396 110.906 59.72C106.297 60.7779 101.559 62.1391 97.0967 63.9448C91.7502 66.1092 86.924 68.7868 82.0753 70.6881C72.1295 74.5168 62.2826 75.6269 53.8858 79.7414C51.378 80.9687 48.9979 82.4404 46.8265 84.3401" stroke="url(#paint22_linear_7057_1825)" stroke-width="0.0761626" stroke-miterlimit="10"/>
<path d="M273.002 38.8065C269.965 33.0419 262.815 40.7241 238.919 27.4102C237.582 26.6654 236.256 25.8505 234.944 25.0861C230.416 22.4474 225.994 19.8772 221.854 18.1593C209.484 12.9723 200.69 13.6218 191.559 18.3353C185.624 21.3988 179.851 26.6717 173.299 33.9186C171.354 36.0686 169.487 38.3324 167.613 40.5999C163.553 45.5117 159.292 50.646 154.117 53.2208C148.879 55.8255 143.72 56.1483 138.652 56.8065C132.734 57.5875 126.453 58.4429 119.734 59.8357C117.388 60.3259 114.987 60.8921 112.57 61.5557C108.086 62.767 103.444 64.1888 99.0082 65.9267C93.695 68.0099 88.7912 70.4394 83.8232 72.0368C73.6307 75.2505 63.4038 75.4999 54.5547 78.8213C51.912 79.8118 49.3898 81.0518 47.0735 82.734" stroke="url(#paint23_linear_7057_1825)" stroke-width="0.0761626" stroke-miterlimit="10"/>
<path d="M272.807 37.6042C270.15 32.5601 263.396 41.3957 239.22 28.2237C237.897 27.5024 236.586 26.72 235.29 25.9761C230.805 23.4194 226.444 20.8928 222.35 19.1339C210.093 13.8183 201.142 13.6954 191.793 18.0243C185.828 20.7856 179.969 25.7704 173.338 32.8629C171.387 34.9499 169.514 37.1528 167.643 39.368C163.588 44.1668 159.391 49.2077 154.404 52.0235C149.356 54.8719 144.389 55.7386 139.485 56.8765C133.759 58.2163 127.695 59.5936 121.186 61.353C118.914 61.9715 116.585 62.6454 114.234 63.3912C109.875 64.7568 105.328 66.2375 100.919 67.9094C95.64 69.9124 90.6576 72.093 85.5714 73.3872C75.1315 75.985 64.5252 75.3747 55.2233 77.9021C52.445 78.656 49.7815 79.6641 47.3201 81.1287" stroke="url(#paint24_linear_7057_1825)" stroke-width="0.0761626" stroke-miterlimit="10"/>
<path d="M272.613 36.4022C270.334 32.0789 263.976 42.059 239.522 29.0372C238.213 28.3405 236.917 27.587 235.636 26.865C231.195 24.3808 226.895 21.9079 222.846 20.1065C210.704 14.662 201.597 13.7763 192.027 17.7103C186.032 20.1747 180.086 24.866 173.377 31.8053C171.42 33.8296 169.542 35.9715 167.672 38.1333C163.622 42.818 159.489 47.7674 154.69 50.8235C149.833 53.9155 145.057 55.326 140.318 56.9436C134.783 58.8436 128.936 60.7415 122.638 62.8675C120.438 63.6133 118.182 64.3956 115.897 65.224C111.662 66.7428 107.211 68.2846 102.829 69.8884C97.5837 71.8112 92.5231 73.7426 87.3176 74.733C76.6311 76.7157 65.6447 75.2447 55.8899 76.9794C52.9768 77.4964 50.1712 78.2729 47.5659 79.5206" stroke="url(#paint25_linear_7057_1825)" stroke-width="0.0761626" stroke-miterlimit="10"/>
<path d="M272.418 35.1994C270.52 31.5966 264.553 42.7128 239.823 29.85C238.528 29.1768 237.248 28.4525 235.983 27.7543C231.585 25.3418 227.345 22.9227 223.342 21.0807C211.314 15.5073 202.055 13.867 192.261 17.3989C186.238 19.5707 180.206 23.9661 173.417 30.7491C171.453 32.7116 169.57 34.7915 167.702 36.9012C163.657 41.4728 159.588 46.3289 154.977 49.6269C150.311 52.9626 145.726 54.917 141.152 57.014C135.809 59.4738 130.178 61.8927 124.091 64.3863C121.965 65.2604 119.782 66.1504 117.562 67.061C113.451 68.7333 109.096 70.3348 104.742 71.8724C99.5301 73.7139 94.3913 75.3975 89.0671 76.0837C78.1333 77.4505 66.7669 75.1188 56.5598 76.0604C53.5118 76.3406 50.5643 76.8855 47.8139 77.9156" stroke="url(#paint26_linear_7057_1825)" stroke-width="0.0761626" stroke-miterlimit="10"/>
<path d="M272.223 33.9979C270.705 31.1157 265.13 43.3579 240.124 30.6642C238.844 30.0145 237.578 29.3194 236.33 28.6449C231.975 26.3049 227.796 23.9386 223.838 22.055C211.924 16.3518 202.516 13.9672 192.496 17.0874C186.446 18.9709 180.327 23.0668 173.458 29.694C171.488 31.5944 169.598 33.6125 167.733 35.6699C163.693 40.1275 159.688 44.891 155.266 48.4302C150.79 52.0106 146.395 54.5069 141.987 57.0846C136.835 60.1045 131.42 63.0443 125.544 65.9042C123.491 66.9066 121.381 67.904 119.226 68.8974C115.24 70.723 110.98 72.3843 106.653 73.855C101.474 75.6166 96.2581 77.0507 90.8151 77.4341C79.6346 78.1858 67.8882 74.9935 57.2283 75.1411C54.0448 75.1846 50.9558 75.4976 48.0605 76.3102" stroke="url(#paint27_linear_7057_1825)" stroke-width="0.0761626" stroke-miterlimit="10"/>
<path d="M272.029 32.7948C270.89 30.633 265.704 43.9919 240.425 31.4756C239.158 30.8485 237.908 30.1842 236.676 29.5328C232.364 27.2645 228.246 24.952 224.335 23.0275C212.534 17.1957 202.98 14.0752 192.729 16.7733C186.653 18.3729 180.447 22.167 173.497 28.6354C171.521 30.4741 169.625 32.429 167.762 34.4352C163.727 38.7797 159.786 43.4499 155.552 47.2299C151.268 51.0539 147.064 54.094 142.82 57.1514C137.86 60.7315 132.662 64.1919 126.997 67.4191C125.017 68.5489 122.98 69.655 120.891 70.7316C117.03 72.7114 112.865 74.4329 108.566 75.8364C103.42 77.5167 98.1264 78.7028 92.5634 78.7825C81.1362 78.9192 69.0098 74.8662 57.897 74.2209C54.5786 74.0277 51.3472 74.1081 48.3079 74.7038" stroke="url(#paint28_linear_7057_1825)" stroke-width="0.0761626" stroke-miterlimit="10"/>
<path d="M271.834 31.592C271.074 30.151 266.276 44.6165 240.726 32.2884C239.474 31.6837 238.239 31.0497 237.023 30.4219C232.754 28.2261 228.697 25.9674 224.831 24.0005C213.144 18.0399 203.445 14.1933 192.963 16.4608C186.861 17.7809 180.569 21.2708 173.537 27.579C171.556 29.3567 169.654 31.2488 167.793 33.2026C163.762 37.4331 159.885 42.0107 155.84 46.032C151.746 50.0997 147.733 53.6836 143.654 57.2207C138.886 61.3606 133.904 65.342 128.45 68.9358C126.544 70.1938 124.579 71.4074 122.555 72.5666C118.819 74.6998 114.749 76.4809 110.478 77.8183C105.366 79.4184 99.9938 80.3555 94.3122 80.1311C82.6377 79.6519 70.1318 74.7392 58.5661 73.2999C55.1123 72.87 51.7395 72.7185 48.5557 73.0977" stroke="url(#paint29_linear_7057_1825)" stroke-width="0.0761626" stroke-miterlimit="10"/>
<path d="M271.639 30.3905C271.259 29.67 266.845 45.2316 241.027 33.1026C239.788 32.5205 238.569 31.9174 237.369 31.3127C233.143 29.1884 229.147 26.9836 225.326 24.976C213.754 18.8864 203.911 14.3238 193.196 16.1496C187.068 17.1942 180.702 20.3934 173.575 26.5233C171.592 28.2447 169.68 30.0693 167.822 31.9708C163.796 36.0882 159.983 40.5725 156.126 44.8348C152.223 49.1471 148.402 53.2737 144.486 57.2907C139.909 61.9907 135.145 66.4928 129.902 70.4541C128.068 71.8404 126.176 73.1617 124.218 74.4031C120.607 76.6896 116.632 78.5306 112.388 79.8011C107.31 81.3209 101.86 82.0099 96.0591 81.4816C84.1379 80.3874 71.252 74.614 59.2341 72.3816C55.6453 71.715 52.1305 71.3318 48.8022 71.4932" stroke="url(#paint30_linear_7057_1825)" stroke-width="0.0761626" stroke-miterlimit="10"/>
<path d="M271.444 29.1882C271.444 29.1882 267.413 45.8363 241.329 33.9159C215.245 21.9954 199.031 4.34131 173.616 25.4673C156.054 40.0665 144.492 63.2136 125.883 76.2383C118.226 81.597 108.678 84.3581 97.8083 82.8307C85.6398 81.1205 72.3744 74.4874 59.9031 71.4613C56.1788 70.558 52.5232 69.9427 49.0493 69.8867" stroke="url(#paint31_linear_7057_1825)" stroke-width="0.0761626" stroke-miterlimit="10"/>
<defs>
<linearGradient id="paint0_linear_7057_1825" x1="108.893" y1="-1.5958" x2="157.627" y2="119.704" gradientUnits="userSpaceOnUse">
<stop stop-color="#A7F950"/>
<stop offset="1" stop-color="#00F0FF"/>
</linearGradient>
<linearGradient id="paint1_linear_7057_1825" x1="110.747" y1="0.422065" x2="158.029" y2="118.11" gradientUnits="userSpaceOnUse">
<stop stop-color="#A7F950"/>
<stop offset="1" stop-color="#00F0FF"/>
</linearGradient>
<linearGradient id="paint2_linear_7057_1825" x1="112.602" y1="2.44406" x2="158.432" y2="116.517" gradientUnits="userSpaceOnUse">
<stop stop-color="#A7F950"/>
<stop offset="1" stop-color="#00F0FF"/>
</linearGradient>
<linearGradient id="paint3_linear_7057_1825" x1="114.458" y1="4.46335" x2="158.836" y2="114.922" gradientUnits="userSpaceOnUse">
<stop stop-color="#A7F950"/>
<stop offset="1" stop-color="#00F0FF"/>
</linearGradient>
<linearGradient id="paint4_linear_7057_1825" x1="116.31" y1="6.48389" x2="159.237" y2="113.329" gradientUnits="userSpaceOnUse">
<stop stop-color="#A7F950"/>
<stop offset="1" stop-color="#00F0FF"/>
</linearGradient>
<linearGradient id="paint5_linear_7057_1825" x1="118.166" y1="8.50586" x2="159.64" y2="111.735" gradientUnits="userSpaceOnUse">
<stop stop-color="#A7F950"/>
<stop offset="1" stop-color="#00F0FF"/>
</linearGradient>
<linearGradient id="paint6_linear_7057_1825" x1="120.019" y1="10.5219" x2="160.042" y2="110.141" gradientUnits="userSpaceOnUse">
<stop stop-color="#A7F950"/>
<stop offset="1" stop-color="#00F0FF"/>
</linearGradient>
<linearGradient id="paint7_linear_7057_1825" x1="121.874" y1="12.5446" x2="160.444" y2="108.547" gradientUnits="userSpaceOnUse">
<stop stop-color="#A7F950"/>
<stop offset="1" stop-color="#00F0FF"/>
</linearGradient>
<linearGradient id="paint8_linear_7057_1825" x1="123.729" y1="14.5643" x2="160.847" y2="106.952" gradientUnits="userSpaceOnUse">
<stop stop-color="#A7F950"/>
<stop offset="1" stop-color="#00F0FF"/>
</linearGradient>
<linearGradient id="paint9_linear_7057_1825" x1="125.583" y1="16.5845" x2="161.249" y2="105.358" gradientUnits="userSpaceOnUse">
<stop stop-color="#A7F950"/>
<stop offset="1" stop-color="#00F0FF"/>
</linearGradient>
<linearGradient id="paint10_linear_7057_1825" x1="127.436" y1="18.6029" x2="161.651" y2="103.765" gradientUnits="userSpaceOnUse">
<stop stop-color="#A7F950"/>
<stop offset="1" stop-color="#00F0FF"/>
</linearGradient>
<linearGradient id="paint11_linear_7057_1825" x1="129.292" y1="20.6233" x2="162.054" y2="102.17" gradientUnits="userSpaceOnUse">
<stop stop-color="#A7F950"/>
<stop offset="1" stop-color="#00F0FF"/>
</linearGradient>
<linearGradient id="paint12_linear_7057_1825" x1="131.147" y1="22.6442" x2="162.457" y2="100.577" gradientUnits="userSpaceOnUse">
<stop stop-color="#A7F950"/>
<stop offset="1" stop-color="#00F0FF"/>
</linearGradient>
<linearGradient id="paint13_linear_7057_1825" x1="132.999" y1="24.6628" x2="162.858" y2="98.9836" gradientUnits="userSpaceOnUse">
<stop stop-color="#A7F950"/>
<stop offset="1" stop-color="#00F0FF"/>
</linearGradient>
<linearGradient id="paint14_linear_7057_1825" x1="134.853" y1="26.6826" x2="163.26" y2="97.3887" gradientUnits="userSpaceOnUse">
<stop stop-color="#A7F950"/>
<stop offset="1" stop-color="#00F0FF"/>
</linearGradient>
<linearGradient id="paint15_linear_7057_1825" x1="136.708" y1="28.7016" x2="163.664" y2="95.7952" gradientUnits="userSpaceOnUse">
<stop stop-color="#A7F950"/>
<stop offset="1" stop-color="#00F0FF"/>
</linearGradient>
<linearGradient id="paint16_linear_7057_1825" x1="138.562" y1="30.7214" x2="164.066" y2="94.2015" gradientUnits="userSpaceOnUse">
<stop stop-color="#A7F950"/>
<stop offset="1" stop-color="#00F0FF"/>
</linearGradient>
<linearGradient id="paint17_linear_7057_1825" x1="140.418" y1="32.7423" x2="164.469" y2="92.6073" gradientUnits="userSpaceOnUse">
<stop stop-color="#A7F950"/>
<stop offset="1" stop-color="#00F0FF"/>
</linearGradient>
<linearGradient id="paint18_linear_7057_1825" x1="142.269" y1="34.7581" x2="164.87" y2="91.0136" gradientUnits="userSpaceOnUse">
<stop stop-color="#A7F950"/>
<stop offset="1" stop-color="#00F0FF"/>
</linearGradient>
<linearGradient id="paint19_linear_7057_1825" x1="143.988" y1="36.5232" x2="165.248" y2="89.4409" gradientUnits="userSpaceOnUse">
<stop stop-color="#A7F950"/>
<stop offset="1" stop-color="#00F0FF"/>
</linearGradient>
<linearGradient id="paint20_linear_7057_1825" x1="144.775" y1="36.5441" x2="165.455" y2="88.0172" gradientUnits="userSpaceOnUse">
<stop stop-color="#A7F950"/>
<stop offset="1" stop-color="#00F0FF"/>
</linearGradient>
<linearGradient id="paint21_linear_7057_1825" x1="145.515" y1="36.478" x2="165.652" y2="86.6007" gradientUnits="userSpaceOnUse">
<stop stop-color="#A7F950"/>
<stop offset="1" stop-color="#00F0FF"/>
</linearGradient>
<linearGradient id="paint22_linear_7057_1825" x1="146.212" y1="36.3289" x2="165.843" y2="85.1914" gradientUnits="userSpaceOnUse">
<stop stop-color="#A7F950"/>
<stop offset="1" stop-color="#00F0FF"/>
</linearGradient>
<linearGradient id="paint23_linear_7057_1825" x1="146.861" y1="36.0919" x2="166.024" y2="83.7884" gradientUnits="userSpaceOnUse">
<stop stop-color="#A7F950"/>
<stop offset="1" stop-color="#00F0FF"/>
</linearGradient>
<linearGradient id="paint24_linear_7057_1825" x1="147.468" y1="35.7757" x2="166.197" y2="82.393" gradientUnits="userSpaceOnUse">
<stop stop-color="#A7F950"/>
<stop offset="1" stop-color="#00F0FF"/>
</linearGradient>
<linearGradient id="paint25_linear_7057_1825" x1="148.034" y1="35.3835" x2="166.363" y2="81.0043" gradientUnits="userSpaceOnUse">
<stop stop-color="#A7F950"/>
<stop offset="1" stop-color="#00F0FF"/>
</linearGradient>
<linearGradient id="paint26_linear_7057_1825" x1="148.569" y1="34.9317" x2="166.523" y2="79.6198" gradientUnits="userSpaceOnUse">
<stop stop-color="#A7F950"/>
<stop offset="1" stop-color="#00F0FF"/>
</linearGradient>
<linearGradient id="paint27_linear_7057_1825" x1="149.076" y1="34.429" x2="166.678" y2="78.2411" gradientUnits="userSpaceOnUse">
<stop stop-color="#A7F950"/>
<stop offset="1" stop-color="#00F0FF"/>
</linearGradient>
<linearGradient id="paint28_linear_7057_1825" x1="149.555" y1="33.8727" x2="167.025" y2="77.3555" gradientUnits="userSpaceOnUse">
<stop stop-color="#A7F950"/>
<stop offset="1" stop-color="#00F0FF"/>
</linearGradient>
<linearGradient id="paint29_linear_7057_1825" x1="149.6" y1="32.502" x2="167.587" y2="77.2729" gradientUnits="userSpaceOnUse">
<stop stop-color="#A7F950"/>
<stop offset="1" stop-color="#00F0FF"/>
</linearGradient>
<linearGradient id="paint30_linear_7057_1825" x1="149.576" y1="31.0062" x2="168.172" y2="77.2915" gradientUnits="userSpaceOnUse">
<stop stop-color="#A7F950"/>
<stop offset="1" stop-color="#00F0FF"/>
</linearGradient>
<linearGradient id="paint31_linear_7057_1825" x1="149.553" y1="29.5085" x2="168.784" y2="77.3765" gradientUnits="userSpaceOnUse">
<stop stop-color="#A7F950"/>
<stop offset="1" stop-color="#00F0FF"/>
</linearGradient>
</defs>
</svg>
